<?xml version="1.0" encoding="UTF-8"?>
<svg width="107.44mm" height="78.043mm" version="1.1" viewBox="0 0 107.44 78.043" xmlns="http://www.w3.org/2000/svg">
 <g transform="translate(-37.418 -62.007)">
  <rect x="37.418" y="62.007" width="107.44" height="78.043" ry="2.9104" fill="#197cda" stroke-linecap="round" stroke-width=".52917"/>
  <g fill="#fff">
   <g stroke-width="1.3049" style="font-variant-caps:normal;font-variant-east-asian:normal;font-variant-ligatures:normal;font-variant-numeric:normal" aria-label="NRC ">
    <path d="m48.152 84.241h9.4999l8.3515 24.898q0.26098 0.73076 0.41758 1.7747 0.15659 0.99174 0.26098 1.8791 0.10439 1.0961 0.20879 2.2445h0.73076t-0.15659-0.93955q-0.10439-0.93954-0.26098-2.3489t-0.31318-3.0274q-0.15659-1.6703-0.15659-3.0274v-21.453h6.6812v37.582h-9.4999l-8.1949-24.898q-0.26098-0.88735-0.46977-1.8791-0.20879-1.0439-0.31318-1.9313-0.10439-1.0439-0.15659-2.0879h-0.73076q0.20879 1.5659 0.41758 3.184 0.10439 1.3571 0.20879 2.9752 0.15659 1.6181 0.15659 3.1318v21.505h-6.6812z" style="font-variant-caps:normal;font-variant-east-asian:normal;font-variant-ligatures:normal;font-variant-numeric:normal"/>
    <path d="m92.343 84.241q3.0796 0 5.5329 0.83515 2.4533 0.78296 4.1758 2.2967 1.7225 1.4615 2.662 3.6016 0.93955 2.0879 0.93955 4.7499 0 3.6538-1.7747 6.2636-1.7747 2.6098-4.9065 3.967l7.2032 15.868h-8.3515l-6.368-14.615h-3.8626v14.615h-7.7774v-37.582zm-4.7499 16.964h4.7499q2.5577 0 4.0192-1.3571 1.4615-1.4093 1.4615-3.7582 0-2.4533-1.5137-3.8626-1.4615-1.4615-3.967-1.4615h-4.7499z" style="font-variant-caps:normal;font-variant-east-asian:normal;font-variant-ligatures:normal;font-variant-numeric:normal"/>
    <path d="m123.59 122.35q-2.9752 0-5.3763-0.83515-2.4011-0.83516-4.1236-2.3489-1.7225-1.5659-2.662-3.706-0.93955-2.1923-0.93955-4.8543v-15.137q0-2.662 0.93955-4.8021 0.93954-2.1923 2.662-3.706 1.7225-1.5659 4.1236-2.4011 2.4532-0.83515 5.4285-0.83515 2.923 0 5.3241 0.83515 2.4011 0.83515 4.1236 2.4011 1.7225 1.5137 2.662 3.706 0.93954 2.1401 0.93954 4.8021h-7.8296q0-2.1923-1.4093-3.445t-3.8104-1.2527q-2.4533 0-3.9148 1.2527-1.4093 1.2527-1.4093 3.445v15.137q0 2.1923 1.3571 3.445 1.4093 1.2527 3.9148 1.2527 2.4532 0 3.8626-1.3049 1.4093-1.3049 1.4093-3.3928h7.8296q0 2.662-0.93954 4.8543-0.93955 2.1401-2.662 3.706-1.7225 1.5137-4.1236 2.3489-2.4011 0.83515-5.3763 0.83515z" style="font-variant-caps:normal;font-variant-east-asian:normal;font-variant-ligatures:normal;font-variant-numeric:normal"/>
   </g>
   <rect x="48.152" y="58.746" width="16.838" height="14.7" ry="2.9104" stroke-linecap="round" stroke-width=".52917"/>
   <rect x="119.85" y="57.516" width="16.838" height="14.7" ry="2.9104" stroke-linecap="round" stroke-width=".52917"/>
  </g>
 </g>
</svg>
