<?xml version="1.0" encoding="UTF-8"?>
<svg width="400" height="400" version="1.1" viewBox="0 0 105.83 105.83" xmlns="http://www.w3.org/2000/svg">
 <g transform="translate(-37.418 -62.007)">
  <rect x="38.06" y="68.683" width="104.55" height="92.48" ry="3.4488" fill="#197cda" opacity=".999" stroke-linecap="round" stroke-width=".56823"/>
  <g transform="scale(.85067 1.1755)" fill="#fff" stroke-width="1.7183" style="font-variant-caps:normal;font-variant-east-asian:normal;font-variant-ligatures:normal;font-variant-numeric:normal" aria-label="NRC">
   <path d="m77.113 126.02-11.746-26.177-2.4163-5.6381v31.815h-7.5175v-43.863h10.135l11.981 26.345 2.1143 5.1347v-31.479h7.5175v43.863z" style="font-variant-caps:normal;font-variant-east-asian:normal;font-variant-ligatures:normal;font-variant-numeric:normal"/>
   <path d="m116.56 126.02-6.175-14.095q-0.87256-2.0136-2.4499-3.0204-1.5438-1.0404-3.658-1.0404h-1.5773v18.156h-8.2558v-43.863h12.786q3.6245 0 6.5778 0.63764 2.9533 0.60408 5.034 2.0472 2.0807 1.4431 3.1882 3.7587 1.141 2.3156 1.141 5.6716 0 2.4163-0.70476 4.2957-0.70476 1.8794-1.98 3.2553-1.2753 1.3424-3.054 2.1814-1.7451 0.839-3.8258 1.1746 1.6109 0.3356 2.9533 1.8458 1.3424 1.4766 2.6848 4.2957l7.0141 14.699zm-2.0472-30.942q0-3.2218-2.0472-4.6313-2.0472-1.4095-6.1415-1.4095h-3.6245v12.384h3.356q1.9129 0 3.4567-0.40272 1.5773-0.40272 2.6848-1.2082 1.1075-0.80544 1.7116-1.98 0.60409-1.2082 0.60409-2.7519z" style="font-variant-caps:normal;font-variant-east-asian:normal;font-variant-ligatures:normal;font-variant-numeric:normal"/>
   <path d="m161.66 124.31q-2.9197 1.1746-5.6716 1.7451-2.7184 0.57052-5.6717 0.57052-4.732 0-8.39-1.376-3.6245-1.4095-6.1415-4.1614-2.4834-2.7519-3.7923-6.8127-1.2753-4.0943-1.2753-9.4975 0-5.5374 1.4095-9.8331 1.4095-4.3292 4.0272-7.2825 2.6177-2.9868 6.3428-4.5306 3.7587-1.5773 8.4236-1.5773 1.5102 0 2.819 0.06712 1.3424 0.06712 2.6177 0.26848 1.2753 0.1678 2.5841 0.46984 1.3088 0.30204 2.7184 0.77188v8.1887q-2.8526-1.3424-5.4367-1.9129-2.5841-0.57052-4.6984-0.57052-3.1211 0-5.336 1.141-2.215 1.1075-3.658 3.1546-1.4095 2.0136-2.0807 4.8326-0.6712 2.7855-0.6712 6.1415 0 3.5574 0.6712 6.3764 0.70476 2.7855 2.1478 4.732t3.6916 2.9868q2.2485 1.0068 5.336 1.0068 1.1075 0 2.3828-0.20136 1.3088-0.23492 2.6177-0.57052 1.3424-0.36917 2.6177-0.83901 1.3088-0.5034 2.4163-1.0068z" style="font-variant-caps:normal;font-variant-east-asian:normal;font-variant-ligatures:normal;font-variant-numeric:normal"/>
  </g>
  <path d="m49.201 68.682c-0.0084 0.09591-0.01447 0.19277-0.01447 0.29094v15.355c0 1.8078 1.455 3.2634 3.2628 3.2634h17.249c1.8078 0 3.2634-1.4555 3.2634-3.2634v-15.355c0-0.09817-0.0061-0.19502-0.01447-0.29094zm58.52 0c-8e-3 0.09591-0.0145 0.19277-0.0145 0.29094v15.355c0 1.8078 1.4556 3.2634 3.2634 3.2634h17.249c1.8078 0 3.2628-1.4555 3.2628-3.2634v-15.355c0-0.09817-6e-3 -0.19502-0.0145-0.29094z" fill="#fff" opacity=".999" stroke-linecap="round" stroke-width=".76718"/>
 </g>
</svg>
